<?xml version="1.0" encoding="UTF-8" standalone="no"?>
<!-- Created with Inkscape (http://www.inkscape.org/) -->

<svg
   width="499mm"
   height="400mm"
   viewBox="0 0 499 400"
   version="1.1"
   id="svg1"
   xml:space="preserve"
   inkscape:version="1.4.2 (f4327f4, 2025-05-13)"
   sodipodi:docname="GatherPoint.svg"
   xmlns:inkscape="http://www.inkscape.org/namespaces/inkscape"
   xmlns:sodipodi="http://sodipodi.sourceforge.net/DTD/sodipodi-0.dtd"
   xmlns="http://www.w3.org/2000/svg"
   xmlns:svg="http://www.w3.org/2000/svg"><sodipodi:namedview
     id="namedview1"
     pagecolor="#000000"
     bordercolor="#000000"
     borderopacity="0.25"
     inkscape:showpageshadow="2"
     inkscape:pageopacity="0.0"
     inkscape:pagecheckerboard="0"
     inkscape:deskcolor="#d1d1d1"
     inkscape:document-units="mm"
     inkscape:zoom="0.51981271"
     inkscape:cx="822.41159"
     inkscape:cy="691.59525"
     inkscape:window-width="2560"
     inkscape:window-height="1369"
     inkscape:window-x="-8"
     inkscape:window-y="-8"
     inkscape:window-maximized="1"
     inkscape:current-layer="layer1" /><defs
     id="defs1"><clipPath
       clipPathUnits="userSpaceOnUse"
       id="clipPath55"><path
         id="path55"
         style="stroke-width:0.1;stroke-linecap:square;paint-order:markers fill stroke;stop-color:#000000"
         d="m 1736.6147,-745.57287 h 1589.4765 v 72.46715 H 1736.6147 Z" /></clipPath><clipPath
       clipPathUnits="userSpaceOnUse"
       id="clipPath21"><rect
         style="fill:none;stroke:#000000;stroke-linecap:butt;stroke-linejoin:bevel;paint-order:stroke markers fill;stop-color:#000000"
         id="rect21"
         width="45.034248"
         height="38.955639"
         x="262.48285"
         y="121.00073" /></clipPath><clipPath
       clipPathUnits="userSpaceOnUse"
       id="clipPath15"><rect
         style="fill:none;stroke:#000000;stroke-linecap:butt;stroke-linejoin:bevel;paint-order:stroke markers fill;stop-color:#000000"
         id="rect15-7"
         width="45.034248"
         height="38.955639"
         x="262.48285"
         y="121.00073" /></clipPath><inkscape:path-effect
       effect="envelope"
       id="path-effect2"
       is_visible="true"
       lpeversion="1"
       yy="true"
       xx="true"
       bendpath1="M 35.030279,976.42163 C 328.31752,977.05812 500.13673,1078.0825 673.72364,1044.3963"
       bendpath2="m 666.1709,1038.1023 5.03516,296.9016"
       bendpath3="m 26.218753,1387.8731 c 259.031317,9.4794 461.289797,139.6427 656.316407,84.3388"
       bendpath4="m 24.959963,1028.032 v 267.9494"
       bendpath1-nodetypes="cc"
       bendpath3-nodetypes="cc"
       bendpath2-nodetypes="cc"
       bendpath4-nodetypes="cc" /><rect
       x="13.603107"
       y="1036.5567"
       width="803.94366"
       height="596.49623"
       id="rect1" /></defs><g
     inkscape:label="Layer 1"
     inkscape:groupmode="layer"
     id="layer1"><circle
       style="fill:#028174;stroke-width:0.882;fill-opacity:1;stroke-dasharray:none;stroke:#000000;stroke-opacity:1"
       id="path1"
       cy="200.02188"
       cx="247.63423"
       r="200" /><g
       id="g2990"
       transform="matrix(0.82206477,0,0,0.81888837,-138.68113,-169.53759)"
       style="stroke:#0ab68b;stroke-opacity:1"><path
         sodipodi:nodetypes="sssssssssssssssssss"
         d="m 699.72452,478.35101 c -3.61833,30.07721 -13.21561,59.42314 -28.06856,85.82618 -14.85295,26.40305 -34.94988,49.84242 -58.77622,68.55167 -23.82635,18.70924 -51.36335,32.67362 -80.53574,40.84076 -29.17239,8.16713 -59.95721,10.53058 -90.03442,6.91226 -30.07721,-3.61833 -59.42314,-13.2156 -85.82619,-28.06853 -26.40304,-14.85293 -49.84243,-34.94984 -68.55169,-58.77618 -18.70925,-23.82633 -32.67366,-51.36333 -40.84081,-80.53572 -8.16715,-29.1724 -10.53062,-59.95722 -6.91229,-90.03443 3.61833,-30.07721 13.21561,-59.42314 28.06856,-85.82618 14.85295,-26.40305 34.94988,-49.84242 58.77622,-68.55167 23.82635,-18.70924 51.36335,-32.67362 80.53574,-40.84076 27.97309,-7.83137 57.42875,-10.32645 86.32149,-7.3282 0.2012,0.0209 0.40238,0.042 0.60353,0.0634 1.03724,0.11041 2.07374,0.22791 3.1094,0.3525 30.07721,3.61833 59.42314,13.2156 85.82619,28.06853 26.40304,14.85293 49.84243,34.94984 68.55169,58.77618 18.70925,23.82633 32.67366,51.36333 40.84081,80.53572 8.16715,29.1724 10.53062,59.95722 6.91229,90.03443 z"
         id="path3409"
         inkscape:connector-curvature="0"
         style="fill:none;stroke:#0ab68b;stroke-width:8;stroke-miterlimit:0;stroke-opacity:1" /><path
         sodipodi:nodetypes="cssssc"
         style="fill-opacity:0;stroke:#0ab68b;stroke-width:7.21624;stroke-miterlimit:0;stroke-opacity:1"
         inkscape:connector-curvature="0"
         id="path2396"
         d="m 596.02648,256.67458 c -11.7221,6.4307 -24.87751,11.02996 -38.65497,13.47333 -17.56777,3.11557 -36.12148,2.7214 -53.77635,-1.14249 -17.65486,-3.8639 -34.38529,-11.1919 -48.49171,-21.2396 -6.97144,-4.9656 -13.297,-10.59189 -18.83615,-16.72251 -2.41851,-2.67675 -4.6871,-5.44965 -6.79406,-8.30567" /><path
         sodipodi:nodetypes="csssc"
         style="fill-opacity:0;stroke:#0ab68b;stroke-width:7.21637;stroke-miterlimit:0;stroke-opacity:1"
         inkscape:connector-curvature="0"
         id="path3170"
         d="m 655.42109,589.24667 c -30.81506,19.11177 -66.71865,32.401 -104.56304,38.65188 -40.65491,6.7151 -83.49065,5.2979 -124.15573,-4.10764 -40.66509,-9.40555 -79.10057,-26.78581 -111.40197,-50.37518 -30.58754,-22.33776 -55.63267,-50.21258 -72.88228,-81.05703" /><path
         sodipodi:nodetypes="cssssc"
         style="fill-opacity:0;stroke:#0ab68b;stroke-width:7.21641;stroke-miterlimit:0;stroke-opacity:1"
         inkscape:connector-curvature="0"
         id="path3172"
         d="m 333.72637,637.5104 c -15.09967,-35.39732 -23.21656,-75.23333 -23.58012,-115.95951 -0.38796,-43.45891 8.05339,-87.86848 24.4665,-128.71733 16.41312,-40.84886 40.77422,-78.07779 70.60856,-107.90488 21.68372,-21.67844 46.2358,-39.42407 72.28088,-52.36395 8.15496,-4.0516 16.45629,-7.63206 24.86177,-10.71457" /><path
         sodipodi:nodetypes="cc"
         style="fill:none;stroke:#0ab68b;stroke-width:7.9828;stroke-miterlimit:0;stroke-opacity:1"
         inkscape:connector-curvature="0"
         id="path3178"
         d="M 520.16632,224.62737 413.7517,674.96431" /><path
         sodipodi:nodetypes="cssssc"
         style="fill-opacity:0;stroke:#0ab68b;stroke-width:7.21608;stroke-linecap:round;stroke-miterlimit:0;stroke-opacity:1"
         inkscape:connector-curvature="0"
         id="path2393"
         d="m 701.51432,458.1986 c -11.39519,4.32886 -23.59226,8.28705 -36.19449,11.75866 -26.47338,7.29279 -54.73471,12.43836 -81.10642,14.3622 -39.90716,2.91126 -80.74205,0.054 -120.2789,-8.416 -39.53684,-8.47002 -77.75955,-22.54936 -112.58474,-41.47062 -34.82519,-18.92125 -68.49785,-44.70996 -94.7874,-72.0048" /><path
         sodipodi:nodetypes="csssc"
         style="fill-opacity:0;stroke:#0ab68b;stroke-width:7.21636;stroke-miterlimit:0;stroke-opacity:1"
         inkscape:connector-curvature="0"
         id="path2395"
         d="m 536.80905,229.29436 c 26.33313,29.66937 47.06337,66.23275 60.19107,106.21502 13.55149,41.27297 18.98203,86.12932 15.73996,130.01227 -3.24207,43.88296 -15.15204,86.72894 -34.52005,124.18538 -18.38409,35.55361 -43.46243,66.20248 -72.90686,89.16544" /></g><path
       style="font-size:192px;line-height:132.283px;font-family:'Bauhaus 93';-inkscape-font-specification:'Bauhaus 93, ';letter-spacing:0px;word-spacing:0px;white-space:pre;fill:#ffe3b3;fill-opacity:1;stroke:none;stroke-width:1.00027;stroke-dasharray:none;stroke-opacity:1"
       d="m 514.95989,1266.1621 c 0.8733,44.2554 2.45423,106.2175 5.07399,184.5492 -12.70547,1.7386 -25.35032,2.743 -38.03006,3.0679 -1.94071,-79.3578 -3.31729,-139.7294 -4.10507,-185.447 -9.46,0.2217 -18.88393,0.1934 -28.32791,-0.061 -0.29224,-19.0153 -0.50576,-36.2374 -0.63142,-52.5877 25.95687,0.9387 51.23895,0.4047 77.34277,-1.902 4.04256,-0.3553 8.08261,-0.7485 12.1275,-1.1803 1.3288,-0.1418 2.65769,-0.288 3.98695,-0.4386 0.20633,15.3788 0.50376,32.2936 0.8982,50.5835 -1.33223,0.1951 -2.66417,0.3852 -3.99606,0.5703 -4.05399,0.5635 -8.10412,1.0823 -12.15693,1.5567 -4.0633,0.4775 -8.12195,0.9071 -12.18196,1.2892 z"
       transform="matrix(0.57184389,0,0,0.57184389,56.170147,-472.07701)"
       id="path75" /><path
       style="font-size:192px;line-height:132.283px;font-family:'Bauhaus 93';-inkscape-font-specification:'Bauhaus 93, ';letter-spacing:0px;word-spacing:0px;white-space:pre;fill:#ffe3b3;fill-opacity:1;stroke:none;stroke-width:1.00027;stroke-dasharray:none;stroke-opacity:1"
       d="m 349.53788,1436.3038 c 0.18532,-66.493 -0.60367,-124.4595 -1.05225,-165.2093 -0.25153,-22.8483 3.85433,-38.6228 12.25243,-49.6169 4.40128,-5.7162 9.59544,-9.6272 15.52798,-11.8665 5.45227,-2.0651 11.5458,-2.7291 18.25656,-2.0569 0.71638,0.072 1.424,0.1569 2.12283,0.2554 0,0 0,0 0,0 12.88053,1.8306 22.93694,8.2042 29.99222,19.7323 7.54307,12.2302 11.4701,29.4336 11.88026,55.3542 1.16079,73.3579 1.68285,96.3264 2.84364,169.6843 -12.63574,-1.0376 -25.22056,-2.6586 -37.82061,-4.7547 -0.45125,-67.2804 -1.41912,-126.8991 -1.96924,-167.6924 -0.12329,-9.1425 -1.60356,-14.7893 -4.45562,-17.4776 -1.0897,-1.0255 -2.3815,-1.6134 -3.87345,-1.7716 -5.21669,-0.5529 -7.76819,4.9092 -7.60938,17.4888 0.51607,40.8786 1.40746,99.5479 1.63486,166.4949 -2.97376,-0.5847 -5.94677,-1.1926 -8.91956,-1.8219 -9.60361,-2.0349 -19.20276,-4.2964 -28.81067,-6.7421 z"
       transform="matrix(0.57184389,0,0,0.57184389,56.170147,-472.07701)"
       id="path74" /><path
       style="font-size:192px;line-height:132.283px;font-family:'Bauhaus 93';-inkscape-font-specification:'Bauhaus 93, ';letter-spacing:0px;word-spacing:0px;white-space:pre;fill:#ffe3b3;fill-opacity:1;stroke:none;stroke-width:1.00027;stroke-dasharray:none;stroke-opacity:1"
       d="m 325.54111,1203.1026 c 0.0871,56.933 1.83935,121.8882 1.21046,227.0829 -12.58515,-3.5421 -25.21407,-7.3454 -37.84169,-11.2962 1.0591,-102.0909 -0.76301,-165.2509 -0.77969,-221.416 12.47679,1.9142 25.03227,3.8254 37.41092,5.6293 z"
       transform="matrix(0.57184389,0,0,0.57184389,56.170147,-472.07701)"
       id="path73" /><path
       id="path71"
       style="font-size:192px;line-height:132.283px;font-family:'Bauhaus 93';-inkscape-font-specification:'Bauhaus 93, ';letter-spacing:0px;word-spacing:0px;white-space:pre;display:inline;fill:#ff4958;fill-opacity:1;stroke:none;stroke-width:1.00027;stroke-dasharray:none;stroke-opacity:1"
       d="M 197.32695 1180.4012 C 181.10571 1179.961 166.84794 1186.0156 155.20368 1198.2308 C 141.82062 1212.346 135.35094 1230.7999 135.61369 1257.6768 C 135.87444 1284.3479 142.71743 1312.7598 155.8715 1341.8474 C 169.18324 1371.2838 186.02833 1392.1617 203.49728 1398.1106 C 205.70336 1398.8619 207.93092 1399.3446 210.16645 1399.5637 C 217.04199 1400.2373 223.93913 1398.4124 230.47215 1394.3856 C 238.51744 1389.426 245.89644 1381.1907 251.81709 1370.6061 C 264.11662 1348.6176 271.34207 1317.607 271.07092 1287.0554 C 270.80419 1257.0024 264.10283 1233.3642 251.10409 1213.5925 C 244.70296 1203.8145 237.64091 1196.3573 229.98055 1191.0158 C 223.73431 1186.6605 217.04332 1183.6789 209.91161 1182.0088 C 208.10211 1181.5844 206.26424 1181.245 204.39735 1180.9886 C 202.00175 1180.6596 199.64427 1180.4641 197.32695 1180.4012 z M 200.54948 1229.2325 C 201.49659 1229.28 202.46056 1229.3912 203.44216 1229.5669 C 205.76817 1229.9832 207.98857 1230.7222 210.10319 1231.7872 C 215.20331 1234.354 219.71758 1238.8329 223.64485 1245.3786 C 226.75321 1250.5594 229.02274 1256.5634 230.44414 1262.9542 C 231.56587 1267.9992 232.15641 1273.2772 232.20451 1278.5201 C 232.25288 1283.8061 231.75653 1289.161 230.71073 1294.265 C 229.39899 1300.6643 227.21789 1306.6837 224.16988 1311.5406 C 220.32716 1317.6674 215.87618 1321.2207 210.76468 1322.0035 C 208.65393 1322.3261 206.44001 1322.1763 204.1145 1321.5561 C 196.26532 1319.4629 189.59046 1312.4329 183.88651 1301.236 C 178.27433 1290.1108 175.40206 1278.299 175.28979 1266.0701 C 175.17765 1253.8548 177.86172 1244.6563 183.36056 1237.7334 C 188.14386 1231.7113 193.91964 1228.8998 200.54948 1229.2325 z "
       transform="matrix(0.57184388,0,0,0.57184388,56.170147,-472.07702)" /><path
       style="font-size:192px;line-height:132.283px;font-family:'Bauhaus 93';-inkscape-font-specification:'Bauhaus 93, ';letter-spacing:0px;word-spacing:0px;white-space:pre;fill:#ffe3b3;fill-opacity:1;stroke:none;stroke-width:1.00027;stroke-dasharray:none;stroke-opacity:1"
       d="m 76.060158,1273.4514 c -0.1052,-16.5967 -0.287688,-32.2656 -0.445841,-46.1427 7.840663,1.4634 11.720819,-1.6385 11.643108,-8.8822 -0.071,-6.6183 -3.097575,-10.2615 -9.092149,-11.2177 -6.057007,-0.9662 -9.042788,2.7439 -8.941757,11.7386 0.361045,32.1436 0.995844,75.9417 0.318843,128.9316 -12.751657,-4.0265 -25.952042,-8.2195 -38.655327,-12.3655 0.531317,-49.4923 0.04403,-88.9878 -0.305658,-119.1076 -0.112525,-9.6923 0.62629,-16.9716 2.220318,-22.4105 1.654,-5.4873 4.500307,-10.2819 8.536923,-14.5466 4.530811,-4.7124 10.2704,-8.2314 17.136596,-10.5803 6.872767,-2.3512 14.001413,-3.2176 21.332849,-2.4619 13.268911,1.3678 24.398557,7.297 33.406437,18.5538 9.07739,11.272 13.69781,24.9986 13.86985,41.7593 0.16762,16.3311 -3.71089,30.0944 -11.72043,39.8746 -7.37779,9.0868 -18.381054,12.0276 -33.372945,8.4255 0.246959,0.065 -6.177777,-1.6336 -5.930817,-1.5684 z"
       transform="matrix(0.57184389,0,0,0.57184389,56.170147,-472.07701)"
       id="path70" /><path
       style="font-size:192px;line-height:132.283px;font-family:'Bauhaus 93';-inkscape-font-specification:'Bauhaus 93, ';letter-spacing:0px;word-spacing:0px;white-space:pre;fill:#ffe3b3;fill-opacity:1;stroke:none;stroke-width:1.00027;stroke-dasharray:none;stroke-opacity:1"
       d="m 606.33047,1092.4022 c -0.92877,33.8829 -0.72113,68.3743 -0.20601,102.8516 -0.7335,0.1414 -1.46696,0.2821 -2.20048,0.422 -2.16665,0.4132 -4.33145,0.8197 -6.49686,1.2192 -9.51174,1.7562 -18.92883,3.3493 -28.43726,4.7624 -0.64337,-48.079 -0.67087,-95.5464 2.13464,-151.0436 9.46905,0.1084 18.86841,-0.027 28.32023,-0.3927 2.15485,-0.083 4.30816,-0.1784 6.46164,-0.2849 4.21647,-0.2085 8.42357,-0.4613 12.63194,-0.754 14.47068,-1.0064 25.13833,2.7292 32.66851,10.9795 8.31647,9.1512 12.33469,20.7889 12.12183,34.4371 -0.21697,13.9116 -5.67779,25.6868 -16.68156,36.5368 7.55088,17.9698 14.40161,33.2186 21.95248,51.1884 -12.99607,2.644 -25.9737,5.4685 -38.96166,8.1822 -6.25209,-14.4662 -12.42357,-28.0812 -18.46352,-41.8056 -0.0335,-11.588 0.008,-23.3022 0.17204,-35.1621 0.97167,-0.1134 1.94316,-0.2283 2.91471,-0.3445 7.78055,-0.9306 11.68794,-5.1518 11.83588,-12.6674 0.1315,-6.6806 -4.24494,-9.6241 -13.2176,-8.7425 -2.18291,0.2145 -4.3652,0.4207 -6.54895,0.6181 z"
       transform="matrix(0.57184389,0,0,0.57184389,56.170147,-472.07701)"
       id="path69" /><path
       style="font-size:192px;line-height:132.283px;font-family:'Bauhaus 93';-inkscape-font-specification:'Bauhaus 93, ';letter-spacing:0px;word-spacing:0px;white-space:pre;fill:#ffe3b3;fill-opacity:1;stroke:none;stroke-width:1.00027;stroke-dasharray:none;stroke-opacity:1"
       d="m 545.43415,1113.8011 c -0.20513,11.1683 -0.32284,22.0667 -0.3745,32.8366 -2.32623,0.138 -4.65076,0.2638 -6.97529,0.3774 -4.02936,0.1965 -8.05327,0.3587 -12.07964,0.4872 -1.67298,0.054 -3.34529,0.1024 -5.01748,0.1442 -3.27208,0.082 -5.60164,0.7004 -7.00291,1.8985 -1.33826,1.195 -2.01585,3.188 -2.02729,5.9811 -0.0129,3.1598 0.679,5.2431 2.07015,6.233 1.38931,0.9151 4.24004,1.3099 8.54227,1.128 1.12841,-0.048 2.25691,-0.098 3.38567,-0.1518 4.03032,-0.1888 8.05819,-0.4118 12.09144,-0.6696 3.11619,-0.1994 6.23174,-0.4208 9.35081,-0.6642 0.009,13.781 0.11373,28.1201 0.29729,43.0835 -3.12638,0.364 -6.24954,0.7045 -9.37346,1.0214 -4.04351,0.4103 -8.08207,0.7827 -12.12314,1.1179 -2.53044,0.2111 -5.05924,0.4063 -7.58812,0.5858 -13.68727,0.9715 -24.13305,-3.0111 -31.40554,-11.3218 -7.25225,-8.3654 -10.88763,-20.4933 -10.813,-35.8445 0.0985,-20.2514 0.37794,-40.5336 0.87226,-62.5359 0.36311,-16.1618 4.12865,-29.3732 11.20182,-38.4021 7.20951,-9.1174 16.85749,-12.8942 29.29087,-11.6142 3.55268,0.3657 7.10469,0.7019 10.66063,1.0076 4.03763,0.3473 8.07384,0.6551 12.11557,0.9224 3.11732,0.2062 6.23396,0.3869 9.35315,0.5419 -0.81328,17.3745 -1.36984,33.3143 -1.74776,48.1887 -3.11025,0.026 -6.21719,0.029 -9.32462,0.01 -4.02305,-0.026 -8.0407,-0.088 -12.06057,-0.1845 -0.70221,-0.017 -1.40432,-0.034 -2.10638,-0.053 -6.34795,-0.169 -9.58715,2.3987 -9.70045,7.6859 -0.0666,3.1086 0.64726,5.2801 2.13428,6.5337 1.48751,1.1765 4.16909,1.7922 8.03819,1.8164 -1.5e-4,0 1.29065,0.01 1.2905,0.01 4.02017,0.02 8.03799,0.01 12.06124,-0.043 2.32076,-0.028 4.64156,-0.069 6.96401,-0.1229 z"
       transform="matrix(0.57184389,0,0,0.57184389,56.170147,-472.07701)"
       id="path68" /><path
       style="font-size:192px;line-height:132.283px;font-family:'Bauhaus 93';-inkscape-font-specification:'Bauhaus 93, ';letter-spacing:0px;word-spacing:0px;white-space:pre;fill:#ffe3b3;fill-opacity:1;stroke:none;stroke-width:1.00027;stroke-dasharray:none;stroke-opacity:1"
       d="m 456.62816,1038.6082 c -2.00748,68.7949 -2.75146,113.5825 -2.38861,169.8129 -12.29601,-0.3821 -24.52321,-1.0881 -36.80366,-2.0528 -0.25242,-59.9896 0.73649,-100.0575 2.45144,-174.9239 12.27555,2.5215 24.45854,4.9383 36.74083,7.1638 z"
       transform="matrix(0.57184389,0,0,0.57184389,56.170147,-472.07701)"
       id="path67" /><path
       style="font-size:192px;line-height:132.283px;font-family:'Bauhaus 93';-inkscape-font-specification:'Bauhaus 93, ';letter-spacing:0px;word-spacing:0px;white-space:pre;fill:#ffe3b3;fill-opacity:1;stroke:none;stroke-width:1.00027;stroke-dasharray:none;stroke-opacity:1"
       d="m 412.14208,1099.3243 c -0.30663,15.5327 -0.54935,30.0041 -0.71814,44.4264 -3.4,-0.3725 -6.79899,-0.7582 -10.19936,-1.1554 -0.2555,20.9132 -0.34856,40.7344 -0.27804,62.3323 -1.43742,-0.1376 -2.87482,-0.2781 -4.31233,-0.4215 -6.78121,-0.6683 -13.57438,-1.4004 -20.38851,-2.1841 -4.06627,-0.4747 -8.13532,-0.9684 -12.20839,-1.4787 -0.0943,-68.4207 1.20142,-93.8215 2.56883,-180.5068 4.05894,0.8355 8.11385,1.6774 12.16727,2.5229 3.19079,0.6652 17.14388,3.5939 20.33466,4.2591 -0.43482,-0.091 4.74339,0.9945 4.30856,0.9033 -0.57084,28.286 -0.88619,41.543 -1.45704,69.829 3.39494,0.4995 6.78811,0.9913 10.18249,1.4735 z"
       transform="matrix(0.57184389,0,0,0.57184389,56.170147,-472.07701)"
       id="path66" /><path
       style="font-size:192px;line-height:132.283px;font-family:'Bauhaus 93';-inkscape-font-specification:'Bauhaus 93, ';letter-spacing:0px;word-spacing:0px;white-space:pre;fill:#ffe3b3;fill-opacity:1;stroke:none;stroke-width:1.00027;stroke-dasharray:none;stroke-opacity:1"
       d="m 323.65996,1072.4645 c -0.99914,49.1116 -1.68542,79.122 -1.70376,122.6407 -12.36071,-1.7914 -24.96888,-3.6856 -37.42996,-5.5595 0.0767,-43.668 0.84464,-72.3794 1.90914,-122.6205 -9.55406,-1.3239 -19.109,-2.5603 -28.72841,-3.6915 0.41075,-18.4421 0.82569,-39.0773 1.08167,-61.4587 31.91597,3.9026 62.78888,9.4756 94.17945,15.785 -0.31331,21.4584 -0.71131,41.559 -1.07145,59.4548 -9.40069,-1.5402 -18.78727,-3.0641 -28.23668,-4.5503 z"
       transform="matrix(0.57184389,0,0,0.57184389,56.170147,-472.07701)"
       id="path65" /><path
       style="font-size:192px;line-height:132.283px;font-family:'Bauhaus 93';-inkscape-font-specification:'Bauhaus 93, ';letter-spacing:0px;word-spacing:0px;white-space:pre;fill:#ffe3b3;fill-opacity:1;stroke:none;stroke-width:1.00027;stroke-dasharray:none;stroke-opacity:1"
       d="m 201.22394,1096.4457 c -0.39829,15.339 -0.72472,29.2187 -0.9628,43.3679 -3.68741,-0.3924 -7.37678,-0.7741 -11.07333,-1.1457 -0.21817,12.5969 -0.35086,24.6838 -0.40304,37.2137 -12.89878,-1.666 -25.65665,-3.2206 -38.63836,-4.7148 0.16062,-34.1696 0.93929,-60.9305 2.18348,-101.1477 0.6815,-22.0291 5.62333,-41.7946 14.56424,-56.565 9.09173,-15.01817 21.18367,-23.23117 36.78179,-22.43778 3.50074,0.17807 6.77581,0.77646 9.83546,1.7855 0,0 0,0 0,0 8.12089,2.6782 14.66822,8.23868 19.69839,16.24278 1.18277,1.8821 2.27927,3.8962 3.28957,6.0339 6.92915,14.5478 10.06608,35.4345 9.49371,59.6037 -1.02405,43.241 -1.72136,70.8383 -1.83317,108.8544 -4.71711,-0.6876 -9.42914,-1.3671 -14.16221,-2.0401 -6.68067,-0.9513 -13.35359,-1.8839 -20.07558,-2.8019 0.005,7e-4 -3.9136,-0.5332 -3.90847,-0.5325 0.13656,-35.6411 0.8456,-62.5408 1.91667,-103.3747 0.18869,-7.1939 -0.27338,-12.4339 -1.39012,-15.4382 -1.11846,-3.0088 -3.20804,-4.6422 -6.28413,-4.8419 -5.9608,-0.3869 -9.13159,6.3839 -9.48103,19.0515 0.6324,-22.9255 -1.23526,44.9419 -0.60286,22.0165 3.68923,0.2752 7.37202,0.5653 11.05179,0.8704 z"
       transform="matrix(0.57184389,0,0,0.57184389,56.170147,-472.07701)"
       id="path64" /><path
       style="font-size:192px;line-height:132.283px;font-family:'Bauhaus 93';-inkscape-font-specification:'Bauhaus 93, ';letter-spacing:0px;word-spacing:0px;white-space:pre;fill:#ffe3b3;fill-opacity:1;stroke:none;stroke-width:1.00027;stroke-dasharray:none;stroke-opacity:1"
       d="m 89.869689,1082.2249 c 12.399531,-0.028 24.692291,0.069 37.053051,0.3274 7.54892,12.964 11.14629,26.0414 10.83944,38.9913 -0.3568,15.058 -5.21323,26.8311 -14.68424,35.6672 -9.42108,8.8553 -20.87852,12.3434 -34.560983,10.9096 -17.665428,-1.8511 -32.862881,-10.6525 -44.986091,-25.0467 -12.18945,-14.4728 -18.062208,-30.401 -17.327693,-51.8698 0.736939,-21.5397 8.000157,-42.6633 21.380952,-62.8662 13.591461,-20.4295 29.427393,-33.76241 48.276847,-35.32795 6.414138,-0.53272 13.391358,1.23672 21.067678,5.33928 -0.59944,22.03947 -1.29892,42.45497 -1.9096,60.14077 -5.99288,-3.9479 -11.46892,-5.8472 -16.52281,-5.7106 -9.140811,0.2472 -16.724321,4.551 -22.84722,12.1924 -6.035112,7.6096 -9.270932,16.8981 -9.630485,27.4879 -0.367946,10.837 2.090852,18.9087 7.306688,25.0601 5.192983,6.1244 12.43523,9.4581 21.546865,9.9388 5.815712,0.3068 8.759522,-1.4067 8.851212,-5.2457 0.0691,-2.8931 -1.80875,-4.4462 -5.642787,-4.6067 -3.100132,-0.1297 -6.197884,-0.2538 -9.298657,-0.373 0.288388,-11.1941 0.652188,-22.5835 1.087833,-35.0081 z"
       transform="matrix(0.57184389,0,0,0.57184389,56.170147,-472.07701)"
       id="text1" /></g></svg>
